<?xml version="1.0" standalone="no"?>
<!DOCTYPE svg PUBLIC "-//W3C//DTD SVG 20010904//EN"
 "http://www.w3.org/TR/2001/REC-SVG-20010904/DTD/svg10.dtd">
<svg version="1.0" xmlns="http://www.w3.org/2000/svg"
 width="446.000000pt" height="446.000000pt" viewBox="0 0 446.000000 446.000000"
 preserveAspectRatio="xMidYMid meet">
<metadata>
Created by potrace 1.15, written by Peter Selinger 2001-2017
</metadata>
<g transform="translate(0.000000,446.000000) scale(0.100000,-0.100000)"
fill="#000000" stroke="none">
<path d="M2178 4398 c-110 -205 -2178 -4359 -2178 -4376 l0 -22 2230 0 c1490
0 2230 3 2230 10 0 6 -63 136 -140 290 l-140 280 -1625 0 c-910 0 -1625 4
-1625 9 0 4 291 590 647 1301 l646 1294 417 -835 418 -834 -181 -3 c-100 -1
-186 -1 -192 1 -5 3 -109 203 -230 446 -121 242 -225 441 -231 441 -15 0 -737
-1448 -730 -1466 5 -12 179 -14 1250 -14 771 0 1247 4 1251 9 3 6 -389 802
-872 1770 -625 1252 -883 1760 -895 1760 -10 1 -29 -22 -50 -61z"/>
</g>
</svg>
